<?xml version="1.0" encoding="UTF-8" standalone="no"?><svg xmlns="http://www.w3.org/2000/svg" xmlns:xlink="http://www.w3.org/1999/xlink" contentStyleType="text/css" height="305px" preserveAspectRatio="none" style="width:1080px;height:305px;background:#FFFFFF;" version="1.1" viewBox="0 0 1080 305" width="1080px" zoomAndPan="magnify"><defs/><g><g id="elem_Partners"><rect fill="#F1F1F1" height="64.8281" style="stroke:#181818;stroke-width:0.5;" width="131" x="275.5" y="47.31"/><text fill="#000000" font-family="sans-serif" font-size="14" lengthAdjust="spacing" textLength="84" x="299" y="63.8432">:Organization</text><line style="stroke:#181818;stroke-width:0.5;" x1="276.5" x2="405.5" y1="68.9194" y2="68.9194"/><text fill="#000000" font-family="sans-serif" font-size="14" lengthAdjust="spacing" textLength="119" x="281.5" y="87.4526">name = "New Hope</text><text fill="#000000" font-family="sans-serif" font-size="14" lengthAdjust="spacing" textLength="111" x="281.5" y="105.062">Medical Partners"</text></g><g id="elem_hie2"><rect fill="#F1F1F1" height="37.6094" style="stroke:#181818;stroke-width:0.5;" width="90" x="51" y="60.81"/><text fill="#000000" font-family="sans-serif" font-size="14" lengthAdjust="spacing" textLength="76" x="58" y="77.3432">Seaside HIE</text><line style="stroke:#181818;stroke-width:0.5;" x1="52" x2="140" y1="82.4194" y2="82.4194"/></g><g id="elem_sEndpoints"><rect fill="#F1F1F1" height="100.0469" style="stroke:#181818;stroke-width:0.5;" width="178" x="7" y="198.81"/><text fill="#000000" font-family="sans-serif" font-size="14" lengthAdjust="spacing" textLength="81" x="55.5" y="215.3432">: Endpoint(s)</text><line style="stroke:#181818;stroke-width:0.5;" x1="8" x2="184" y1="220.4194" y2="220.4194"/><text fill="#000000" font-family="sans-serif" font-size="14" lengthAdjust="spacing" textLength="113" x="13" y="238.9526">connectionType =</text><text fill="#000000" font-family="sans-serif" font-size="14" lengthAdjust="spacing" textLength="135" x="21" y="256.562">PDQ-Supplier-Query,</text><text fill="#000000" font-family="sans-serif" font-size="14" lengthAdjust="spacing" textLength="132" x="21" y="274.1713">XDS-Registry-Query,</text><text fill="#000000" font-family="sans-serif" font-size="14" lengthAdjust="spacing" textLength="158" x="21" y="291.7807">XDS-Repository-Retrieve</text></g><g id="elem_GMN6"><path d="M176,50.31 L176,75.81 L141.06,79.81 L176,83.81 L176,109.3647 A0,0 0 0 0 176,109.3647 L240,109.3647 A0,0 0 0 0 240,109.3647 L240,60.31 L230,50.31 L176,50.31 A0,0 0 0 0 176,50.31 " fill="#FEFFDD" style="stroke:#181818;stroke-width:0.5;"/><path d="M230,50.31 L230,60.31 L240,60.31 L230,50.31 " fill="#FEFFDD" style="stroke:#181818;stroke-width:0.5;"/><text fill="#000000" font-family="sans-serif" font-size="13" lengthAdjust="spacing" textLength="42" x="182" y="68.8051">Internal</text><text fill="#000000" font-family="sans-serif" font-size="13" lengthAdjust="spacing" textLength="38" x="182" y="85.1567">details</text><text fill="#000000" font-family="sans-serif" font-size="13" lengthAdjust="spacing" textLength="43" x="182" y="101.5082">omitted</text></g><g id="elem_hie"><rect fill="#F1F1F1" height="82.4375" style="stroke:#181818;stroke-width:0.5;" width="185" x="478.5" y="38.81"/><text fill="#000000" font-family="sans-serif" font-size="14" lengthAdjust="spacing" textLength="112" x="515" y="55.3432">Valley Region HIE</text><line style="stroke:#181818;stroke-width:0.5;" x1="479.5" x2="662.5" y1="60.4194" y2="60.4194"/><text fill="#000000" font-family="sans-serif" font-size="14" lengthAdjust="spacing" textLength="173" x="484.5" y="78.9526">name = "Valley Region HIE"</text><text fill="#000000" font-family="sans-serif" font-size="14" lengthAdjust="spacing" textLength="97" x="484.5" y="96.562">OrgID = 1.2.3.0</text><text fill="#000000" font-family="sans-serif" font-size="14" lengthAdjust="spacing" textLength="80" x="484.5" y="114.1713">HCID = 1.2.3</text></g><g id="elem_Valley"><rect fill="#F1F1F1" height="82.4375" style="stroke:#181818;stroke-width:0.5;" width="155" x="288.5" y="207.81"/><text fill="#000000" font-family="sans-serif" font-size="14" lengthAdjust="spacing" textLength="84" x="324" y="224.3432">:Organization</text><line style="stroke:#181818;stroke-width:0.5;" x1="289.5" x2="442.5" y1="229.4194" y2="229.4194"/><text fill="#000000" font-family="sans-serif" font-size="14" lengthAdjust="spacing" textLength="143" x="294.5" y="247.9526">name = "Valley Access</text><text fill="#000000" font-family="sans-serif" font-size="14" lengthAdjust="spacing" textLength="73" x="294.5" y="265.562">Healthcare"</text><text fill="#000000" font-family="sans-serif" font-size="14" lengthAdjust="spacing" textLength="97" x="294.5" y="283.1713">OrgID = 1.2.3.2</text></g><g id="elem_OU"><rect fill="#F1F1F1" height="100.0469" style="stroke:#181818;stroke-width:0.5;" width="185" x="478.5" y="198.81"/><text fill="#000000" font-family="sans-serif" font-size="14" lengthAdjust="spacing" textLength="84" x="529" y="215.3432">:Organization</text><line style="stroke:#181818;stroke-width:0.5;" x1="479.5" x2="662.5" y1="220.4194" y2="220.4194"/><text fill="#000000" font-family="sans-serif" font-size="14" lengthAdjust="spacing" textLength="166" x="484.5" y="238.9526">name = "University Health"</text><text fill="#000000" font-family="sans-serif" font-size="14" lengthAdjust="spacing" textLength="173" x="484.5" y="256.562">alias = "OU Health System",</text><text fill="#000000" font-family="sans-serif" font-size="14" lengthAdjust="spacing" textLength="74" x="484.5" y="274.1713">"OU Health"</text><text fill="#000000" font-family="sans-serif" font-size="14" lengthAdjust="spacing" textLength="97" x="484.5" y="291.7807">OrgID = 1.2.3.3</text></g><g id="elem_Urgent"><rect fill="#F1F1F1" height="64.8281" style="stroke:#181818;stroke-width:0.5;" width="159" x="698.5" y="216.31"/><text fill="#000000" font-family="sans-serif" font-size="14" lengthAdjust="spacing" textLength="84" x="736" y="232.8432">:Organization</text><line style="stroke:#181818;stroke-width:0.5;" x1="699.5" x2="856.5" y1="237.9194" y2="237.9194"/><text fill="#000000" font-family="sans-serif" font-size="14" lengthAdjust="spacing" textLength="147" x="704.5" y="256.4526">name = "Urgent Health"</text><text fill="#000000" font-family="sans-serif" font-size="14" lengthAdjust="spacing" textLength="97" x="704.5" y="274.062">OrgID = 4.5.6.7</text></g><g id="elem_vEndpoints"><rect fill="#F1F1F1" height="64.8281" style="stroke:#181818;stroke-width:0.5;" width="162" x="912" y="47.31"/><text fill="#000000" font-family="sans-serif" font-size="14" lengthAdjust="spacing" textLength="148" x="919" y="63.8432">Central PDQ : Endpoint</text><line style="stroke:#181818;stroke-width:0.5;" x1="913" x2="1073" y1="68.9194" y2="68.9194"/><text fill="#000000" font-family="sans-serif" font-size="14" lengthAdjust="spacing" textLength="113" x="918" y="87.4526">connectionType =</text><text fill="#000000" font-family="sans-serif" font-size="14" lengthAdjust="spacing" textLength="131" x="926" y="105.062">PDQ-Supplier-Query</text></g><g id="elem_ouEndpoints"><rect fill="#F1F1F1" height="82.4375" style="stroke:#181818;stroke-width:0.5;" width="178" x="699" y="38.81"/><text fill="#000000" font-family="sans-serif" font-size="14" lengthAdjust="spacing" textLength="145" x="715.5" y="55.3432">Central XDS : Endpoint</text><line style="stroke:#181818;stroke-width:0.5;" x1="700" x2="876" y1="60.4194" y2="60.4194"/><text fill="#000000" font-family="sans-serif" font-size="14" lengthAdjust="spacing" textLength="113" x="705" y="78.9526">connectionType =</text><text fill="#000000" font-family="sans-serif" font-size="14" lengthAdjust="spacing" textLength="132" x="713" y="96.562">XDS-Registry-Query,</text><text fill="#000000" font-family="sans-serif" font-size="14" lengthAdjust="spacing" textLength="158" x="713" y="114.1713">XDS-Repository-Retrieve</text></g><!--MD5=[a88ffcf2e3a26edfff4d099592b40e9e]
link hie2 to sEndpoints--><g id="link_hie2_sEndpoints"><path codeLine="10" d="M96,99 C96,121.55 96,160.99 96,193.6 " fill="none" id="hie2-to-sEndpoints" style="stroke:#181818;stroke-width:1.0;"/><polygon fill="#181818" points="96,198.78,100,189.78,96,193.78,92,189.78,96,198.78" style="stroke:#181818;stroke-width:1.0;"/></g><!--MD5=[af3e235453fefa61d4f8dc745130bd0b]
reverse link hie to Valley--><g id="link_hie_Valley"><path codeLine="37" d="M517.69,124.24 C486.09,149.98 446.31,182.39 415.41,207.56 " fill="none" id="hie-backto-Valley" style="stroke:#181818;stroke-width:1.0;"/><polygon fill="#181818" points="521.9,120.81,512.3926,123.3809,518.0194,123.963,517.4373,129.5898,521.9,120.81" style="stroke:#181818;stroke-width:1.0;"/><text fill="#000000" font-family="sans-serif" font-size="13" lengthAdjust="spacing" textLength="35" x="482" y="165.3051">partOf</text></g><!--MD5=[cadc79c12d9b5b8b2a8ea4b5088d87e6]
reverse link hie to OU--><g id="link_hie_OU"><path codeLine="38" d="M571,125.83 C571,148.31 571,175.55 571,198.59 " fill="none" id="hie-backto-OU" style="stroke:#181818;stroke-width:1.0;"/><polygon fill="#181818" points="571,120.81,567,129.81,571,125.81,575,129.81,571,120.81" style="stroke:#181818;stroke-width:1.0;"/><text fill="#000000" font-family="sans-serif" font-size="13" lengthAdjust="spacing" textLength="35" x="572" y="165.3051">partOf</text></g><!--MD5=[022e279ead4b26fd38c4e66e04848b14]
reverse link hie to Urgent--><g id="link_hie_Urgent"><path codeLine="39" d="M624.88,124.28 C660.59,153.09 706.61,190.22 738.84,216.22 " fill="none" id="hie-backto-Urgent" style="stroke:#181818;stroke-width:1.0;"/><polygon fill="#181818" points="620.58,120.81,625.0621,129.5799,624.4676,123.9543,630.0931,123.3598,620.58,120.81" style="stroke:#181818;stroke-width:1.0;"/><text fill="#000000" font-family="sans-serif" font-size="13" lengthAdjust="spacing" textLength="35" x="676" y="165.3051">partOf</text></g><!--MD5=[d3da8f104fc5ecdba94a6e7b441f0ccf]
link Partners to hie--><g id="link_Partners_hie"><path codeLine="40" d="M406.6,79.81 C427.34,79.81 450.72,79.81 473.21,79.81 " fill="none" id="Partners-to-hie" style="stroke:#181818;stroke-width:1.0;"/><polygon fill="#181818" points="478.29,79.81,469.29,75.81,473.29,79.81,469.29,83.81,478.29,79.81" style="stroke:#181818;stroke-width:1.0;"/><text fill="#000000" font-family="sans-serif" font-size="13" lengthAdjust="spacing" textLength="35" x="425" y="73.3051">partOf</text></g><!--MD5=[25709e1bcd7e629bfb307a8c95d20621]
link hie to vEndpoints--><g id="link_hie_vEndpoints"><path codeLine="42" d="M650.95,38.75 C666.36,32.56 682.65,27.14 698.5,23.81 C776.36,7.47 799.96,6 877.5,23.81 C896.66,28.21 916.33,36.23 933.88,44.84 " fill="none" id="hie-to-vEndpoints" style="stroke:#181818;stroke-width:1.0;"/><polygon fill="#181818" points="938.77,47.29,932.4993,39.6954,934.295,45.0597,928.9307,46.8554,938.77,47.29" style="stroke:#181818;stroke-width:1.0;"/></g><!--MD5=[2e78c6e81ca144e9d286be7f4cbae112]
link hie to ouEndpoints--><g id="link_hie_ouEndpoints"><path codeLine="43" d="M663.82,79.81 C673.73,79.81 683.65,79.81 693.56,79.81 " fill="none" id="hie-to-ouEndpoints" style="stroke:#181818;stroke-width:1.0;"/><polygon fill="#181818" points="698.74,79.81,689.74,75.81,693.74,79.81,689.74,83.81,698.74,79.81" style="stroke:#181818;stroke-width:1.0;"/></g><!--MD5=[8eff9a984c8c92d2b03a6a900200a595]
@startuml
hide footbox
allowmixing

object ":Organization" as Partners
Partners : name = "New Hope\nMedical Partners"

object "Seaside HIE" as hie2
object ": Endpoint(s)" as sEndpoints
sEndpoints : connectionType = \n  PDQ-Supplier-Query,\n  XDS-Registry-Query,\n  XDS-Repository-Retrieve
hie2 - -> sEndpoints
note right of hie2 : Internal\ndetails\nomitted

object "Valley Region HIE" as hie
hie : name = "Valley Region HIE"
hie : OrgID = 1.2.3.0
hie : HCID = 1.2.3

object ":Organization" as Valley
Valley : name = "Valley Access\nHealthcare"
Valley : OrgID = 1.2.3.2

object ":Organization" as OU
OU : name = "University Health"
OU : alias = "OU Health System",\n"OU Health"
OU : OrgID = 1.2.3.3

object ":Organization" as Urgent
Urgent : name = "Urgent Health"
Urgent : OrgID = 4.5.6.7

object "Central PDQ : Endpoint" as vEndpoints
vEndpoints : connectionType = \n  PDQ-Supplier-Query

object "Central XDS : Endpoint" as ouEndpoints
ouEndpoints : connectionType = \n  XDS-Registry-Query,\n  XDS-Repository-Retrieve

hie <- - Valley : partOf
hie <- - OU : partOf
hie <- - Urgent : partOf
Partners -> hie : partOf

hie -> vEndpoints
hie -> ouEndpoints

@enduml

PlantUML version 1.2022.7(Mon Aug 22 12:01:30 CDT 2022)
(GPL source distribution)
Java Runtime: OpenJDK Runtime Environment
JVM: OpenJDK 64-Bit Server VM
Default Encoding: Cp1252
Language: en
Country: US
--></g></svg>