<?xml version="1.0" encoding="UTF-8" standalone="no"?><svg xmlns="http://www.w3.org/2000/svg" xmlns:xlink="http://www.w3.org/1999/xlink" contentStyleType="text/css" height="614px" preserveAspectRatio="none" style="width:894px;height:614px;background:#FFFFFF;" version="1.1" viewBox="0 0 894 614" width="894px" zoomAndPan="magnify"><defs/><g><line style="stroke:#181818;stroke-width:0.5;stroke-dasharray:5.0,5.0;" x1="44" x2="44" y1="81.2969" y2="607.0859"/><line style="stroke:#181818;stroke-width:0.5;stroke-dasharray:5.0,5.0;" x1="243" x2="243" y1="81.2969" y2="607.0859"/><line style="stroke:#181818;stroke-width:0.5;stroke-dasharray:5.0,5.0;" x1="609" x2="609" y1="81.2969" y2="607.0859"/><line style="stroke:#181818;stroke-width:0.5;stroke-dasharray:5.0,5.0;" x1="726" x2="726" y1="81.2969" y2="607.0859"/><line style="stroke:#181818;stroke-width:0.5;stroke-dasharray:5.0,5.0;" x1="837" x2="837" y1="81.2969" y2="607.0859"/><text fill="#000000" font-family="sans-serif" font-size="14" lengthAdjust="spacing" textLength="73" x="5" y="77.9951">Dr. Suwati</text><ellipse cx="44.5" cy="13.5" fill="#E2E2F0" rx="8" ry="8" style="stroke:#181818;stroke-width:0.5;"/><path d="M44.5,21.5 L44.5,48.5 M31.5,29.5 L57.5,29.5 M44.5,48.5 L31.5,63.5 M44.5,48.5 L57.5,63.5 " fill="none" style="stroke:#181818;stroke-width:0.5;"/><rect fill="#E2E2F0" height="30.2969" rx="2.5" ry="2.5" style="stroke:#181818;stroke-width:0.5;" width="119" x="184" y="50"/><text fill="#000000" font-family="sans-serif" font-size="14" lengthAdjust="spacing" textLength="105" x="191" y="69.9951">New Hope EHR</text><rect fill="#E2E2F0" height="46.5938" rx="2.5" ry="2.5" style="stroke:#181818;stroke-width:0.5;" width="111" x="554" y="33.7031"/><text fill="#000000" font-family="sans-serif" font-size="14" lengthAdjust="spacing" textLength="97" x="561" y="53.6982">Valley Region</text><text fill="#000000" font-family="sans-serif" font-size="14" lengthAdjust="spacing" textLength="95" x="562" y="69.9951">HIE Directory</text><rect fill="#E2E2F0" height="46.5938" rx="2.5" ry="2.5" style="stroke:#181818;stroke-width:0.5;" width="102" x="675" y="33.7031"/><text fill="#000000" font-family="sans-serif" font-size="14" lengthAdjust="spacing" textLength="88" x="682" y="53.6982">Central PDQ</text><text fill="#000000" font-family="sans-serif" font-size="14" lengthAdjust="spacing" textLength="75" x="688.5" y="69.9951">: Endpoint</text><rect fill="#E2E2F0" height="46.5938" rx="2.5" ry="2.5" style="stroke:#181818;stroke-width:0.5;" width="101" x="787" y="33.7031"/><text fill="#000000" font-family="sans-serif" font-size="14" lengthAdjust="spacing" textLength="87" x="794" y="53.6982">Central XDS</text><text fill="#000000" font-family="sans-serif" font-size="14" lengthAdjust="spacing" textLength="75" x="800" y="69.9951">: Endpoint</text><polygon fill="#181818" points="231.5,168.9609,241.5,172.9609,231.5,176.9609,235.5,172.9609" style="stroke:#181818;stroke-width:1.0;"/><line style="stroke:#181818;stroke-width:1.0;" x1="44.5" x2="237.5" y1="172.9609" y2="172.9609"/><text fill="#000000" font-family="sans-serif" font-size="13" lengthAdjust="spacing" textLength="94" x="51.5" y="107.3638">Kick off search</text><text fill="#000000" font-family="sans-serif" font-size="13" lengthAdjust="spacing" textLength="142" x="51.5" y="122.4966">given known locations</text><text fill="#000000" font-family="sans-serif" font-size="13" lengthAdjust="spacing" textLength="82" x="51.5" y="137.6294">of treatment</text><text fill="#000000" font-family="sans-serif" font-size="13" lengthAdjust="spacing" textLength="175" x="51.5" y="152.7622">"Valley Access Healthcare",</text><text fill="#000000" font-family="sans-serif" font-size="13" lengthAdjust="spacing" textLength="74" x="51.5" y="167.895">"OU Health"</text><polygon fill="#181818" points="597.5,213.2266,607.5,217.2266,597.5,221.2266,601.5,217.2266" style="stroke:#181818;stroke-width:1.0;"/><line style="stroke:#181818;stroke-width:1.0;" x1="243.5" x2="603.5" y1="217.2266" y2="217.2266"/><text fill="#000000" font-family="sans-serif" font-size="13" lengthAdjust="spacing" textLength="279" x="250.5" y="197.0278">Search Orgs for "Valley Access Healthcare",</text><text fill="#000000" font-family="sans-serif" font-size="13" lengthAdjust="spacing" textLength="172" x="250.5" y="212.1606">"OU Health" by name, alias</text><polygon fill="#181818" points="254.5,242.3594,244.5,246.3594,254.5,250.3594,250.5,246.3594" style="stroke:#181818;stroke-width:1.0;"/><line style="stroke:#181818;stroke-width:1.0;stroke-dasharray:2.0,2.0;" x1="248.5" x2="608.5" y1="246.3594" y2="246.3594"/><text fill="#000000" font-family="sans-serif" font-size="13" lengthAdjust="spacing" textLength="159" x="260.5" y="241.2935">: Org 1.2.3.2, Org 1.2.3.3</text><path d="M134,259.3594 L134,299.3594 L353,299.3594 L353,269.3594 L343,259.3594 L134,259.3594 " fill="#FEFFDD" style="stroke:#181818;stroke-width:0.5;"/><path d="M343,259.3594 L343,269.3594 L353,269.3594 L343,259.3594 " fill="#FEFFDD" style="stroke:#181818;stroke-width:0.5;"/><text fill="#000000" font-family="sans-serif" font-size="13" lengthAdjust="spacing" textLength="119" x="140" y="276.4263">Can I get to them?</text><text fill="#000000" font-family="sans-serif" font-size="13" lengthAdjust="spacing" textLength="198" x="140" y="291.5591">I know I'm in Valley Region HIE.</text><polygon fill="#181818" points="597.5,352.0234,607.5,356.0234,597.5,360.0234,601.5,356.0234" style="stroke:#181818;stroke-width:1.0;"/><line style="stroke:#181818;stroke-width:1.0;" x1="243.5" x2="603.5" y1="356.0234" y2="356.0234"/><text fill="#000000" font-family="sans-serif" font-size="13" lengthAdjust="spacing" textLength="204" x="250.5" y="320.6919">Check if orgs have membership</text><text fill="#000000" font-family="sans-serif" font-size="13" lengthAdjust="spacing" textLength="342" x="250.5" y="335.8247">in Valley HIE by OrganizationAffiliation that has codes</text><text fill="#000000" font-family="sans-serif" font-size="13" lengthAdjust="spacing" textLength="224" x="250.5" y="350.9575">“HIE/HIO” and "DocShare-federate"</text><polygon fill="#181818" points="254.5,381.1563,244.5,385.1563,254.5,389.1563,250.5,385.1563" style="stroke:#181818;stroke-width:1.0;"/><line style="stroke:#181818;stroke-width:1.0;stroke-dasharray:2.0,2.0;" x1="248.5" x2="608.5" y1="385.1563" y2="385.1563"/><text fill="#000000" font-family="sans-serif" font-size="13" lengthAdjust="spacing" textLength="58" x="260.5" y="380.0903">: they do</text><polygon fill="#181818" points="597.5,410.2891,607.5,414.2891,597.5,418.2891,601.5,414.2891" style="stroke:#181818;stroke-width:1.0;"/><line style="stroke:#181818;stroke-width:1.0;" x1="243.5" x2="603.5" y1="414.2891" y2="414.2891"/><text fill="#000000" font-family="sans-serif" font-size="13" lengthAdjust="spacing" textLength="262" x="250.5" y="409.2231">Check Valley HIE for PDQ, XDS endpoints</text><polygon fill="#181818" points="254.5,439.4219,244.5,443.4219,254.5,447.4219,250.5,443.4219" style="stroke:#181818;stroke-width:1.0;"/><line style="stroke:#181818;stroke-width:1.0;stroke-dasharray:2.0,2.0;" x1="248.5" x2="608.5" y1="443.4219" y2="443.4219"/><text fill="#000000" font-family="sans-serif" font-size="13" lengthAdjust="spacing" textLength="139" x="260.5" y="438.356">: PDQ, XDS endpoints</text><polygon fill="#181818" points="714,468.5547,724,472.5547,714,476.5547,718,472.5547" style="stroke:#181818;stroke-width:1.0;"/><line style="stroke:#181818;stroke-width:1.0;" x1="243.5" x2="720" y1="472.5547" y2="472.5547"/><text fill="#000000" font-family="sans-serif" font-size="13" lengthAdjust="spacing" textLength="159" x="250.5" y="467.4888">Match "Vanna Patterson"</text><polygon fill="#181818" points="254.5,497.6875,244.5,501.6875,254.5,505.6875,250.5,501.6875" style="stroke:#181818;stroke-width:1.0;"/><line style="stroke:#181818;stroke-width:1.0;stroke-dasharray:2.0,2.0;" x1="248.5" x2="725" y1="501.6875" y2="501.6875"/><text fill="#000000" font-family="sans-serif" font-size="13" lengthAdjust="spacing" textLength="72" x="260.5" y="496.6216">: Match(es)</text><polygon fill="#181818" points="825.5,526.8203,835.5,530.8203,825.5,534.8203,829.5,530.8203" style="stroke:#181818;stroke-width:1.0;"/><line style="stroke:#181818;stroke-width:1.0;" x1="243.5" x2="831.5" y1="530.8203" y2="530.8203"/><text fill="#000000" font-family="sans-serif" font-size="13" lengthAdjust="spacing" textLength="99" x="250.5" y="525.7544">Get documents</text><polygon fill="#181818" points="254.5,555.9531,244.5,559.9531,254.5,563.9531,250.5,559.9531" style="stroke:#181818;stroke-width:1.0;"/><line style="stroke:#181818;stroke-width:1.0;stroke-dasharray:2.0,2.0;" x1="248.5" x2="836.5" y1="559.9531" y2="559.9531"/><text fill="#000000" font-family="sans-serif" font-size="13" lengthAdjust="spacing" textLength="274" x="260.5" y="554.8872">: Documents, including from Urgent Health</text><polygon fill="#181818" points="55.5,585.0859,45.5,589.0859,55.5,593.0859,51.5,589.0859" style="stroke:#181818;stroke-width:1.0;"/><line style="stroke:#181818;stroke-width:1.0;stroke-dasharray:2.0,2.0;" x1="49.5" x2="242.5" y1="589.0859" y2="589.0859"/><text fill="#000000" font-family="sans-serif" font-size="13" lengthAdjust="spacing" textLength="83" x="61.5" y="584.02">: Documents</text><!--MD5=[25be64b96c91311e03e75954025d2659]
@startuml
hide footbox

actor "Dr. Suwati" as actor1
participant "New Hope EHR" as ehr
participant "Valley Region\nHIE Directory" as dir
participant "Central PDQ\n: Endpoint" as xcpd
participant "Central XDS\n: Endpoint" as xca


actor1 -> ehr: Kick off search\ngiven known locations\nof treatment\n"Valley Access Healthcare",\n"OU Health"
ehr -> dir: Search Orgs for "Valley Access Healthcare",\n"OU Health" by name, alias
dir - -> ehr: : Org 1.2.3.2, Org 1.2.3.3
note over ehr : Can I get to them?\nI know I'm in Valley Region HIE.

ehr -> dir: Check if orgs have membership\nin Valley HIE by OrganizationAffiliation that has codes\n“HIE/HIO” and "DocShare-federate"
dir - -> ehr: : they do

ehr -> dir: Check Valley HIE for PDQ, XDS endpoints
dir - -> ehr: : PDQ, XDS endpoints

ehr -> xcpd : Match "Vanna Patterson"
xcpd - -> ehr: : Match(es)

ehr -> xca : Get documents
xca - -> ehr: : Documents, including from Urgent Health
ehr - -> actor1: : Documents
@enduml

PlantUML version 1.2022.13beta8(Unknown compile time)
(GPL source distribution)
Java Runtime: Java(TM) SE Runtime Environment
JVM: Java HotSpot(TM) 64-Bit Server VM
Default Encoding: UTF-8
Language: en
Country: US
--></g></svg>