<?xml version="1.0" encoding="UTF-8" standalone="no"?><svg xmlns="http://www.w3.org/2000/svg" xmlns:xlink="http://www.w3.org/1999/xlink" contentStyleType="text/css" height="670px" preserveAspectRatio="none" style="width:2041px;height:670px;background:#FFFFFF;" version="1.1" viewBox="0 0 2041 670" width="2041px" zoomAndPan="magnify"><defs/><g><g id="elem_OrgAff6Peer"><rect fill="#F1F1F1" height="47.2188" style="stroke:#181818;stroke-width:0.5;" width="183" x="1214" y="454"/><text fill="#000000" font-family="sans-serif" font-size="14" lengthAdjust="spacing" textLength="141" x="1235" y="470.5332">:OrganizationAffiliation</text><line style="stroke:#181818;stroke-width:0.5;" x1="1215" x2="1396" y1="475.6094" y2="475.6094"/><text fill="#000000" font-family="sans-serif" font-size="14" lengthAdjust="spacing" textLength="171" x="1220" y="494.1426">code = PartnerConnectivity</text></g><g id="elem_EndpointAD"><rect fill="#F1F1F1" height="47.2188" style="stroke:#181818;stroke-width:0.5;" width="291" x="837" y="454"/><text fill="#000000" font-family="sans-serif" font-size="14" lengthAdjust="spacing" textLength="56" x="954.5" y="470.5332">Endpoint</text><line style="stroke:#181818;stroke-width:0.5;" x1="838" x2="1127" y1="475.6094" y2="475.6094"/><text fill="#000000" font-family="sans-serif" font-size="14" lengthAdjust="spacing" textLength="279" x="843" y="494.1426">address = https://lower_network_A.org/lower</text></g><g id="elem_OrgAff7Peer"><rect fill="#F1F1F1" height="47.2188" style="stroke:#181818;stroke-width:0.5;" width="183" x="568" y="454"/><text fill="#000000" font-family="sans-serif" font-size="14" lengthAdjust="spacing" textLength="141" x="589" y="470.5332">:OrganizationAffiliation</text><line style="stroke:#181818;stroke-width:0.5;" x1="569" x2="750" y1="475.6094" y2="475.6094"/><text fill="#000000" font-family="sans-serif" font-size="14" lengthAdjust="spacing" textLength="171" x="574" y="494.1426">code = PartnerConnectivity</text></g><g id="elem_EndpointA"><rect fill="#F1F1F1" height="47.2188" style="stroke:#181818;stroke-width:0.5;" width="295" x="949" y="167"/><text fill="#000000" font-family="sans-serif" font-size="14" lengthAdjust="spacing" textLength="56" x="1068.5" y="183.5332">Endpoint</text><line style="stroke:#181818;stroke-width:0.5;" x1="950" x2="1243" y1="188.6094" y2="188.6094"/><text fill="#000000" font-family="sans-serif" font-size="14" lengthAdjust="spacing" textLength="283" x="955" y="207.1426">address = https://lower_network_A.org/upper</text></g><g id="elem_EndpointB"><rect fill="#F1F1F1" height="47.2188" style="stroke:#181818;stroke-width:0.5;" width="231" x="1522" y="167"/><text fill="#000000" font-family="sans-serif" font-size="14" lengthAdjust="spacing" textLength="56" x="1609.5" y="183.5332">Endpoint</text><line style="stroke:#181818;stroke-width:0.5;" x1="1523" x2="1752" y1="188.6094" y2="188.6094"/><text fill="#000000" font-family="sans-serif" font-size="14" lengthAdjust="spacing" textLength="219" x="1528" y="207.1426">address = https://community_B.org</text></g><g id="elem_Endpoint6"><rect fill="#F1F1F1" height="47.2188" style="stroke:#181818;stroke-width:0.5;" width="299" x="1735" y="598.5"/><text fill="#000000" font-family="sans-serif" font-size="14" lengthAdjust="spacing" textLength="56" x="1856.5" y="615.0332">Endpoint</text><line style="stroke:#181818;stroke-width:0.5;" x1="1736" x2="2033" y1="620.1094" y2="620.1094"/><text fill="#000000" font-family="sans-serif" font-size="14" lengthAdjust="spacing" textLength="287" x="1741" y="638.6426">address = https://community_one_two_six.org</text></g><g id="elem_Endpoint7"><rect fill="#F1F1F1" height="47.2188" style="stroke:#181818;stroke-width:0.5;" width="321" x="7" y="598.5"/><text fill="#000000" font-family="sans-serif" font-size="14" lengthAdjust="spacing" textLength="56" x="139.5" y="615.0332">Endpoint</text><line style="stroke:#181818;stroke-width:0.5;" x1="8" x2="327" y1="620.1094" y2="620.1094"/><text fill="#000000" font-family="sans-serif" font-size="14" lengthAdjust="spacing" textLength="309" x="13" y="638.6426">address = https://community_one_two_seven.org</text></g><g id="elem_LNA"><rect fill="#F1F1F1" height="64.8281" style="stroke:#181818;stroke-width:0.5;" width="179" x="695" y="300.5"/><text fill="#000000" font-family="sans-serif" font-size="14" lengthAdjust="spacing" textLength="80" x="744.5" y="317.0332">Organization</text><line style="stroke:#181818;stroke-width:0.5;" x1="696" x2="873" y1="322.1094" y2="322.1094"/><text fill="#000000" font-family="sans-serif" font-size="14" lengthAdjust="spacing" textLength="167" x="701" y="340.6426">Name = "Lower Network A"</text><text fill="#000000" font-family="sans-serif" font-size="14" lengthAdjust="spacing" textLength="73" x="701" y="358.252">OrgID = 1.3</text></g><g id="elem_HC7"><rect fill="#F1F1F1" height="82.4375" style="stroke:#181818;stroke-width:0.5;" width="180" x="363.5" y="581"/><text fill="#000000" font-family="sans-serif" font-size="14" lengthAdjust="spacing" textLength="80" x="413.5" y="597.5332">Organization</text><line style="stroke:#181818;stroke-width:0.5;" x1="364.5" x2="542.5" y1="602.6094" y2="602.6094"/><text fill="#000000" font-family="sans-serif" font-size="14" lengthAdjust="spacing" textLength="168" x="369.5" y="621.1426">Name = "Community 1.2.7"</text><text fill="#000000" font-family="sans-serif" font-size="14" lengthAdjust="spacing" textLength="80" x="369.5" y="638.752">HCID = 1.2.7</text><text fill="#000000" font-family="sans-serif" font-size="14" lengthAdjust="spacing" textLength="85" x="369.5" y="656.3613">OrgID = 1.2.7</text></g><g id="elem_HC6"><rect fill="#F1F1F1" height="82.4375" style="stroke:#181818;stroke-width:0.5;" width="180" x="1424.5" y="581"/><text fill="#000000" font-family="sans-serif" font-size="14" lengthAdjust="spacing" textLength="80" x="1474.5" y="597.5332">Organization</text><line style="stroke:#181818;stroke-width:0.5;" x1="1425.5" x2="1603.5" y1="602.6094" y2="602.6094"/><text fill="#000000" font-family="sans-serif" font-size="14" lengthAdjust="spacing" textLength="168" x="1430.5" y="621.1426">Name = "Community 1.2.6"</text><text fill="#000000" font-family="sans-serif" font-size="14" lengthAdjust="spacing" textLength="80" x="1430.5" y="638.752">HCID = 1.2.6</text><text fill="#000000" font-family="sans-serif" font-size="14" lengthAdjust="spacing" textLength="85" x="1430.5" y="656.3613">OrgID = 1.2.6</text></g><g id="elem_HC8"><rect fill="#F1F1F1" height="82.4375" style="stroke:#181818;stroke-width:0.5;" width="180" x="1267.5" y="292"/><text fill="#000000" font-family="sans-serif" font-size="14" lengthAdjust="spacing" textLength="80" x="1317.5" y="308.5332">Organization</text><line style="stroke:#181818;stroke-width:0.5;" x1="1268.5" x2="1446.5" y1="313.6094" y2="313.6094"/><text fill="#000000" font-family="sans-serif" font-size="14" lengthAdjust="spacing" textLength="168" x="1273.5" y="332.1426">Name = "Community 1.2.8"</text><text fill="#000000" font-family="sans-serif" font-size="14" lengthAdjust="spacing" textLength="84" x="1273.5" y="349.752">HCID =  1.2.8</text><text fill="#000000" font-family="sans-serif" font-size="14" lengthAdjust="spacing" textLength="85" x="1273.5" y="367.3613">OrgID = 1.2.8</text></g><g id="elem_UN"><rect fill="#F1F1F1" height="82.4375" style="stroke:#181818;stroke-width:0.5;" width="166" x="987.5" y="7"/><text fill="#000000" font-family="sans-serif" font-size="14" lengthAdjust="spacing" textLength="80" x="1030.5" y="23.5332">Organization</text><line style="stroke:#181818;stroke-width:0.5;" x1="988.5" x2="1152.5" y1="28.6094" y2="28.6094"/><text fill="#000000" font-family="sans-serif" font-size="14" lengthAdjust="spacing" textLength="154" x="993.5" y="47.1426">Name = "Upper Network"</text><text fill="#000000" font-family="sans-serif" font-size="14" lengthAdjust="spacing" textLength="78" x="993.5" y="64.752">HCID = "1.1"</text><text fill="#000000" font-family="sans-serif" font-size="14" lengthAdjust="spacing" textLength="83" x="993.5" y="82.3613">OrgID = "1.1"</text></g><g id="elem_OrgAff7HIE"><rect fill="#F1F1F1" height="47.2188" style="stroke:#181818;stroke-width:0.5;" width="157" x="160" y="454"/><text fill="#000000" font-family="sans-serif" font-size="14" lengthAdjust="spacing" textLength="141" x="168" y="470.5332">:OrganizationAffiliation</text><line style="stroke:#181818;stroke-width:0.5;" x1="161" x2="316" y1="475.6094" y2="475.6094"/><text fill="#000000" font-family="sans-serif" font-size="14" lengthAdjust="spacing" textLength="145" x="166" y="494.1426">code = HIEConnectivity</text></g><g id="elem_OrgAff7"><rect fill="#F1F1F1" height="47.2188" style="stroke:#181818;stroke-width:0.5;" width="180" x="352.5" y="454"/><text fill="#000000" font-family="sans-serif" font-size="14" lengthAdjust="spacing" textLength="141" x="372" y="470.5332">:OrganizationAffiliation</text><line style="stroke:#181818;stroke-width:0.5;" x1="353.5" x2="531.5" y1="475.6094" y2="475.6094"/><text fill="#000000" font-family="sans-serif" font-size="14" lengthAdjust="spacing" textLength="168" x="358.5" y="494.1426">code = DocShare-federate</text></g><g id="elem_OrgAff6"><rect fill="#F1F1F1" height="47.2188" style="stroke:#181818;stroke-width:0.5;" width="180" x="1432.5" y="454"/><text fill="#000000" font-family="sans-serif" font-size="14" lengthAdjust="spacing" textLength="141" x="1452" y="470.5332">:OrganizationAffiliation</text><line style="stroke:#181818;stroke-width:0.5;" x1="1433.5" x2="1611.5" y1="475.6094" y2="475.6094"/><text fill="#000000" font-family="sans-serif" font-size="14" lengthAdjust="spacing" textLength="168" x="1438.5" y="494.1426">code = DocShare-federate</text></g><g id="elem_OrgAff6HIE"><rect fill="#F1F1F1" height="47.2188" style="stroke:#181818;stroke-width:0.5;" width="157" x="1648" y="454"/><text fill="#000000" font-family="sans-serif" font-size="14" lengthAdjust="spacing" textLength="141" x="1656" y="470.5332">:OrganizationAffiliation</text><line style="stroke:#181818;stroke-width:0.5;" x1="1649" x2="1804" y1="475.6094" y2="475.6094"/><text fill="#000000" font-family="sans-serif" font-size="14" lengthAdjust="spacing" textLength="145" x="1654" y="494.1426">code = HIEConnectivity</text></g><g id="elem_OrgAffA"><rect fill="#F1F1F1" height="47.2188" style="stroke:#181818;stroke-width:0.5;" width="157" x="706" y="167"/><text fill="#000000" font-family="sans-serif" font-size="14" lengthAdjust="spacing" textLength="137" x="716" y="183.5332">OrganizationAffiliation</text><line style="stroke:#181818;stroke-width:0.5;" x1="707" x2="862" y1="188.6094" y2="188.6094"/><text fill="#000000" font-family="sans-serif" font-size="14" lengthAdjust="spacing" textLength="145" x="712" y="207.1426">code = HIEConnectivity</text></g><g id="elem_OrgAffB"><rect fill="#F1F1F1" height="47.2188" style="stroke:#181818;stroke-width:0.5;" width="157" x="1279" y="167"/><text fill="#000000" font-family="sans-serif" font-size="14" lengthAdjust="spacing" textLength="137" x="1289" y="183.5332">OrganizationAffiliation</text><line style="stroke:#181818;stroke-width:0.5;" x1="1280" x2="1435" y1="188.6094" y2="188.6094"/><text fill="#000000" font-family="sans-serif" font-size="14" lengthAdjust="spacing" textLength="145" x="1285" y="207.1426">code = HIEConnectivity</text></g><!--MD5=[7e565617e5840ad75f4950fdcddeeb08]
link OrgAff7HIE to HC7--><g id="link_OrgAff7HIE_HC7"><path codeLine="36" d="M251.77,501.22 C261.86,516.88 276.96,537.28 294.5,551 C305.95,559.96 331.33,572.1 358.53,583.76 " fill="none" id="OrgAff7HIE-to-HC7" style="stroke:#181818;stroke-width:1.0;"/><polygon fill="#181818" points="363.26,585.77,356.5444,578.5658,358.6591,583.8125,353.4124,585.9272,363.26,585.77" style="stroke:#181818;stroke-width:1.0;"/><text fill="#000000" font-family="sans-serif" font-size="13" lengthAdjust="spacing" textLength="143" x="295.5" y="547.4951">participatingOrganization</text></g><!--MD5=[13a724fb26823c3c1440e142e0e07909]
reverse link LNA to OrgAff7HIE--><g id="link_LNA_OrgAff7HIE"><path codeLine="37" d="M689.66,347.42 C597.34,362.06 453.89,389.02 334.5,430 C315.93,436.37 296.28,445.44 279.63,453.88 " fill="none" id="LNA-backto-OrgAff7HIE" style="stroke:#181818;stroke-width:1.0;"/><polygon fill="#181818" points="694.84,346.6,685.3308,344.0357,689.8998,347.371,686.5645,351.94,694.84,346.6" style="stroke:#181818;stroke-width:1.0;"/><text fill="#000000" font-family="sans-serif" font-size="13" lengthAdjust="spacing" textLength="70" x="420.5" y="418.4951">organization</text></g><!--MD5=[928c5130dfd53c3f1165d3182e144682]
link OrgAff7HIE to Endpoint7--><g id="link_OrgAff7HIE_Endpoint7"><path codeLine="38" d="M197.91,501.2 C186.67,509.63 175.83,520.29 169.5,533 C160.29,551.47 160.24,574.94 162.25,592.99 " fill="none" id="OrgAff7HIE-to-Endpoint7" style="stroke:#181818;stroke-width:1.0;"/><polygon fill="#181818" points="162.93,598.41,165.7661,588.9783,162.301,593.4497,157.8296,589.9847,162.93,598.41" style="stroke:#181818;stroke-width:1.0;"/><text fill="#000000" font-family="sans-serif" font-size="13" lengthAdjust="spacing" textLength="49" x="170.5" y="547.4951">endpoint</text></g><!--MD5=[f292e1150e6566d791b43d8546142ffa]
link OrgAff7 to HC7--><g id="link_OrgAff7_HC7"><path codeLine="42" d="M444.24,501.08 C445.78,521.01 448.07,550.67 449.99,575.5 " fill="none" id="OrgAff7-to-HC7" style="stroke:#181818;stroke-width:1.0;"/><polygon fill="#181818" points="450.39,580.72,453.6839,571.4383,450.0043,575.7349,445.7077,572.0553,450.39,580.72" style="stroke:#181818;stroke-width:1.0;"/><text fill="#000000" font-family="sans-serif" font-size="13" lengthAdjust="spacing" textLength="143" x="449.5" y="547.4951">participatingOrganization</text></g><!--MD5=[fa07425c271430d76f390e055e64107e]
reverse link LNA to OrgAff7--><g id="link_LNA_OrgAff7"><path codeLine="43" d="M702.43,367.53 C657.74,385.85 601.52,409.03 551.5,430 C533.1,437.72 512.99,446.26 495.11,453.9 " fill="none" id="LNA-backto-OrgAff7" style="stroke:#181818;stroke-width:1.0;"/><polygon fill="#181818" points="707.26,365.54,697.4152,365.2573,702.6345,367.4387,700.4532,372.6581,707.26,365.54" style="stroke:#181818;stroke-width:1.0;"/><text fill="#000000" font-family="sans-serif" font-size="13" lengthAdjust="spacing" textLength="70" x="609.5" y="418.4951">organization</text></g><!--MD5=[4286c40cf5f0d47139e2a727b59dc23f]
link OrgAff6 to HC6--><g id="link_OrgAff6_HC6"><path codeLine="47" d="M1516.88,501.15 C1514.73,510.89 1512.56,522.43 1511.5,533 C1510.13,546.7 1510.1,561.65 1510.63,575.27 " fill="none" id="OrgAff6-to-HC6" style="stroke:#181818;stroke-width:1.0;"/><polygon fill="#181818" points="1510.87,580.62,1514.4548,571.4467,1510.6417,575.6252,1506.4632,571.8121,1510.87,580.62" style="stroke:#181818;stroke-width:1.0;"/><text fill="#000000" font-family="sans-serif" font-size="13" lengthAdjust="spacing" textLength="143" x="1512.5" y="547.4951">participatingOrganization</text></g><!--MD5=[df47bb3bf2e39f8fec23791155978f6f]
reverse link LNA to OrgAff6--><g id="link_LNA_OrgAff6"><path codeLine="48" d="M879.15,340.98 C1003.63,351.84 1228.28,377.27 1413.5,430 C1434.87,436.08 1457.61,445.31 1476.76,453.95 " fill="none" id="LNA-backto-OrgAff6" style="stroke:#181818;stroke-width:1.0;"/><polygon fill="#181818" points="874.03,340.53,882.6544,345.2861,879.0116,340.9582,883.3395,337.3155,874.03,340.53" style="stroke:#181818;stroke-width:1.0;"/><text fill="#000000" font-family="sans-serif" font-size="13" lengthAdjust="spacing" textLength="70" x="1380.5" y="418.4951">organization</text></g><!--MD5=[3ef3e4de6e23f518f88f6ef1e6e287ef]
link OrgAff6Peer to HC6--><g id="link_OrgAff6Peer_HC6"><path codeLine="53" d="M1317.17,501.25 C1326.16,516.93 1339.85,537.33 1356.5,551 C1375.12,566.28 1397.6,578.87 1419.69,588.94 " fill="none" id="OrgAff6Peer-to-HC6" style="stroke:#181818;stroke-width:1.0;"/><polygon fill="#181818" points="1424.39,591.05,1417.8136,583.7185,1419.8275,589.0047,1414.5412,591.0185,1424.39,591.05" style="stroke:#181818;stroke-width:1.0;"/><text fill="#000000" font-family="sans-serif" font-size="13" lengthAdjust="spacing" textLength="143" x="1357.5" y="547.4951">participatingOrganization</text></g><!--MD5=[d03fad34bb8999f5530e112330dc904f]
reverse link LNA to OrgAff6Peer--><g id="link_LNA_OrgAff6Peer"><path codeLine="54" d="M879.24,358.56 C952.14,377.61 1055.35,404.92 1145.5,430 C1172.81,437.6 1202.66,446.19 1229.1,453.91 " fill="none" id="LNA-backto-OrgAff6Peer" style="stroke:#181818;stroke-width:1.0;"/><polygon fill="#181818" points="874.04,357.2,881.7293,363.3543,878.8761,358.4697,883.7607,355.6165,874.04,357.2" style="stroke:#181818;stroke-width:1.0;"/><text fill="#000000" font-family="sans-serif" font-size="13" lengthAdjust="spacing" textLength="70" x="1116.5" y="418.4951">organization</text></g><!--MD5=[0033b22e1876833881aa9bab43087a51]
link OrgAff7Peer to HC7--><g id="link_OrgAff7Peer_HC7"><path codeLine="59" d="M645.47,501.05 C634.89,516.63 619.2,537.01 601.5,551 C585.57,563.59 567,574.61 548.51,583.95 " fill="none" id="OrgAff7Peer-to-HC7" style="stroke:#181818;stroke-width:1.0;"/><polygon fill="#181818" points="543.82,586.29,553.6598,585.8679,548.2978,584.0653,550.1004,578.7034,543.82,586.29" style="stroke:#181818;stroke-width:1.0;"/><text fill="#000000" font-family="sans-serif" font-size="13" lengthAdjust="spacing" textLength="143" x="620.5" y="547.4951">participatingOrganization</text></g><!--MD5=[70701422893ef1ea65e859bc202be740]
reverse link LNA to OrgAff7Peer--><g id="link_LNA_OrgAff7Peer"><path codeLine="60" d="M753.4,369.45 C730.24,395.85 699.31,431.11 679.4,453.82 " fill="none" id="LNA-backto-OrgAff7Peer" style="stroke:#181818;stroke-width:1.0;"/><polygon fill="#181818" points="756.76,365.63,747.8154,369.7524,753.4604,369.3867,753.8261,375.0317,756.76,365.63" style="stroke:#181818;stroke-width:1.0;"/><text fill="#000000" font-family="sans-serif" font-size="13" lengthAdjust="spacing" textLength="70" x="722.5" y="418.4951">organization</text></g><!--MD5=[a8fe5e468c97f222cfaa291835a828ba]
link OrgAff7Peer to EndpointAD--><g id="link_OrgAff7Peer_EndpointAD"><path codeLine="61" d="M751.19,477.5 C776.3,477.5 804.2,477.5 831.68,477.5 " fill="none" id="OrgAff7Peer-to-EndpointAD" style="stroke:#181818;stroke-width:1.0;"/><polygon fill="#181818" points="836.81,477.5,827.81,473.5,831.81,477.5,827.81,481.5,836.81,477.5" style="stroke:#181818;stroke-width:1.0;"/><text fill="#000000" font-family="sans-serif" font-size="13" lengthAdjust="spacing" textLength="49" x="769.5" y="470.9951">endpoint</text></g><!--MD5=[a6dfa40aaac19de1df064ca82f12f66a]
reverse link EndpointAD to OrgAff6Peer--><g id="link_EndpointAD_OrgAff6Peer"><path codeLine="62" d="M1133.53,477.5 C1160.98,477.5 1188.83,477.5 1213.9,477.5 " fill="none" id="EndpointAD-backto-OrgAff6Peer" style="stroke:#181818;stroke-width:1.0;"/><polygon fill="#181818" points="1128.41,477.5,1137.41,481.5,1133.41,477.5,1137.41,473.5,1128.41,477.5" style="stroke:#181818;stroke-width:1.0;"/><text fill="#000000" font-family="sans-serif" font-size="13" lengthAdjust="spacing" textLength="49" x="1146.5" y="470.9951">endpoint</text></g><!--MD5=[ca69617979ea6689a2d9a35595a4d7fb]
link OrgAff6HIE to HC6--><g id="link_OrgAff6HIE_HC6"><path codeLine="67" d="M1709.64,501.24 C1697.31,516.72 1679.48,536.88 1660.5,551 C1644.91,562.6 1627.09,573.04 1609.38,582.1 " fill="none" id="OrgAff6HIE-to-HC6" style="stroke:#181818;stroke-width:1.0;"/><polygon fill="#181818" points="1604.88,584.38,1614.7175,583.9076,1609.3464,582.1325,1611.1215,576.7614,1604.88,584.38" style="stroke:#181818;stroke-width:1.0;"/><text fill="#000000" font-family="sans-serif" font-size="13" lengthAdjust="spacing" textLength="143" x="1681.5" y="547.4951">participatingOrganization</text></g><!--MD5=[e89197b4d3af03fafbabc094d8094c62]
reverse link LNA to OrgAff6HIE--><g id="link_LNA_OrgAff6HIE"><path codeLine="68" d="M879.18,342.39 C1009.9,354.29 1252.97,377.6 1459.5,404 C1535.75,413.75 1557.08,407.21 1630.5,430 C1649.6,435.93 1669.67,445.13 1686.49,453.79 " fill="none" id="LNA-backto-OrgAff6HIE" style="stroke:#181818;stroke-width:1.0;"/><polygon fill="#181818" points="874.19,341.93,882.7872,346.7351,879.1691,342.3865,883.5176,338.7685,874.19,341.93" style="stroke:#181818;stroke-width:1.0;"/><text fill="#000000" font-family="sans-serif" font-size="13" lengthAdjust="spacing" textLength="70" x="1599.5" y="418.4951">organization</text></g><!--MD5=[403d0492deacce37ededdf468f0f2010]
link OrgAff6HIE to Endpoint6--><g id="link_OrgAff6HIE_Endpoint6"><path codeLine="69" d="M1797.62,501 C1814.87,509.01 1832.17,519.5 1845.5,533 C1861.82,549.52 1871.91,574.03 1877.73,592.99 " fill="none" id="OrgAff6HIE-to-Endpoint6" style="stroke:#181818;stroke-width:1.0;"/><polygon fill="#181818" points="1879.26,598.18,1880.5453,588.4154,1877.843,593.385,1872.8733,590.6826,1879.26,598.18" style="stroke:#181818;stroke-width:1.0;"/><text fill="#000000" font-family="sans-serif" font-size="13" lengthAdjust="spacing" textLength="49" x="1858.5" y="547.4951">endpoint</text></g><!--MD5=[b6a8517d718d66066dad0c9cec4f7eee]
link OrgAffA to LNA--><g id="link_OrgAffA_LNA"><path codeLine="73" d="M784.5,214.07 C784.5,235.96 784.5,269.55 784.5,295.28 " fill="none" id="OrgAffA-to-LNA" style="stroke:#181818;stroke-width:1.0;"/><polygon fill="#181818" points="784.5,300.32,788.5,291.32,784.5,295.32,780.5,291.32,784.5,300.32" style="stroke:#181818;stroke-width:1.0;"/><text fill="#000000" font-family="sans-serif" font-size="13" lengthAdjust="spacing" textLength="143" x="785.5" y="258.4951">participatingOrganization</text></g><!--MD5=[e02afd0f3213f97eba9a22bfac5640c2]
link OrgAffA to EndpointA--><g id="link_OrgAffA_EndpointA"><path codeLine="74" d="M863.23,190.5 C887.79,190.5 915.76,190.5 943.61,190.5 " fill="none" id="OrgAffA-to-EndpointA" style="stroke:#181818;stroke-width:1.0;"/><polygon fill="#181818" points="948.8,190.5,939.8,186.5,943.8,190.5,939.8,194.5,948.8,190.5" style="stroke:#181818;stroke-width:1.0;"/><text fill="#000000" font-family="sans-serif" font-size="13" lengthAdjust="spacing" textLength="49" x="881.5" y="183.9951">endpoint</text></g><!--MD5=[e9ba2591cae3cba7e9c6bda7a56500ff]
reverse link UN to OrgAffA--><g id="link_UN_OrgAffA"><path codeLine="75" d="M984.38,91.31 C933.82,116.14 871.94,146.55 830.54,166.88 " fill="none" id="UN-backto-OrgAffA" style="stroke:#181818;stroke-width:1.0;"/><polygon fill="#181818" points="988.93,89.07,979.0882,89.4417,984.4408,91.2717,982.6109,96.6244,988.93,89.07" style="stroke:#181818;stroke-width:1.0;"/><text fill="#000000" font-family="sans-serif" font-size="13" lengthAdjust="spacing" textLength="70" x="928.5" y="133.4951">organization</text></g><!--MD5=[a7f830a5709cd1c02b61679a8b422ae7]
link OrgAffB to HC8--><g id="link_OrgAffB_HC8"><path codeLine="79" d="M1357.5,214.07 C1357.5,233.63 1357.5,262.51 1357.5,286.8 " fill="none" id="OrgAffB-to-HC8" style="stroke:#181818;stroke-width:1.0;"/><polygon fill="#181818" points="1357.5,291.91,1361.5,282.91,1357.5,286.91,1353.5,282.91,1357.5,291.91" style="stroke:#181818;stroke-width:1.0;"/><text fill="#000000" font-family="sans-serif" font-size="13" lengthAdjust="spacing" textLength="143" x="1358.5" y="258.4951">participatingOrganization</text></g><!--MD5=[bfdd48f9124b751fcc61686c4176be23]
link OrgAffB to EndpointB--><g id="link_OrgAffB_EndpointB"><path codeLine="80" d="M1436.24,190.5 C1461.29,190.5 1489.6,190.5 1516.9,190.5 " fill="none" id="OrgAffB-to-EndpointB" style="stroke:#181818;stroke-width:1.0;"/><polygon fill="#181818" points="1521.99,190.5,1512.99,186.5,1516.99,190.5,1512.99,194.5,1521.99,190.5" style="stroke:#181818;stroke-width:1.0;"/><text fill="#000000" font-family="sans-serif" font-size="13" lengthAdjust="spacing" textLength="49" x="1454.5" y="183.9951">endpoint</text></g><!--MD5=[83d2d8267330382395cdddce3c7e5009]
reverse link UN to OrgAffB--><g id="link_UN_OrgAffB"><path codeLine="81" d="M1156.92,91.31 C1207.65,116.14 1269.76,146.55 1311.3,166.88 " fill="none" id="UN-backto-OrgAffB" style="stroke:#181818;stroke-width:1.0;"/><polygon fill="#181818" points="1152.36,89.07,1158.6791,96.6244,1156.8492,91.2717,1162.2018,89.4417,1152.36,89.07" style="stroke:#181818;stroke-width:1.0;"/><text fill="#000000" font-family="sans-serif" font-size="13" lengthAdjust="spacing" textLength="70" x="1248.5" y="133.4951">organization</text></g><!--MD5=[b67a78ca710ea8618f1e460c81ef1a40]
@startuml mln-dir
hide footbox

object "Endpoint" as EndpointA
EndpointA : address = https://lower_network_A.org/upper
object "Endpoint" as EndpointB
EndpointB : address = https://community_B.org
object "Endpoint" as Endpoint6
Endpoint6 : address = https://community_one_two_six.org
object "Endpoint" as Endpoint7
Endpoint7 : address = https://community_one_two_seven.org

object "Organization" as LNA
LNA : Name = "Lower Network A"
LNA : OrgID = 1.3
object "Organization" as HC7
HC7 : Name = "Community 1.2.7"
HC7 : HCID = 1.2.7
HC7 : OrgID = 1.2.7
object "Organization" as HC6
HC6 : Name = "Community 1.2.6"
HC6 : HCID = 1.2.6
HC6 : OrgID = 1.2.6

object "Organization" as HC8
HC8 : Name = "Community 1.2.8"
HC8 : HCID =  1.2.8
HC8 : OrgID = 1.2.8

object "Organization" as UN
UN : Name = "Upper Network"
UN : HCID = "1.1"
UN : OrgID = "1.1"

object ":OrganizationAffiliation" as OrgAff7HIE
OrgAff7HIE : code = HIEConnectivity
OrgAff7HIE - -> HC7 : participatingOrganization
LNA <- - OrgAff7HIE : organization
OrgAff7HIE - -> Endpoint7 : endpoint

object ":OrganizationAffiliation" as OrgAff7
OrgAff7 : code = DocShare-federate
OrgAff7 - -> HC7 : participatingOrganization
LNA <- - OrgAff7 : organization

object ":OrganizationAffiliation" as OrgAff6
OrgAff6 : code = DocShare-federate
OrgAff6 - -> HC6 : participatingOrganization
LNA <- - OrgAff6 : organization

together {
    object ":OrganizationAffiliation" as OrgAff6Peer
    OrgAff6Peer : code = PartnerConnectivity
    OrgAff6Peer - -> HC6 : participatingOrganization
    LNA <- - OrgAff6Peer : organization
    object "Endpoint" as EndpointAD
    EndpointAD : address = https://lower_network_A.org/lower
    object ":OrganizationAffiliation" as OrgAff7Peer
    OrgAff7Peer : code = PartnerConnectivity
    OrgAff7Peer - -> HC7 : participatingOrganization
    LNA <- - OrgAff7Peer : organization
    OrgAff7Peer -> EndpointAD : endpoint
    EndpointAD <- OrgAff6Peer : endpoint
}

object ":OrganizationAffiliation" as OrgAff6HIE
OrgAff6HIE : code = HIEConnectivity
OrgAff6HIE - -> HC6 : participatingOrganization
LNA <- - OrgAff6HIE : organization
OrgAff6HIE - -> Endpoint6 : endpoint

object "OrganizationAffiliation" as OrgAffA
OrgAffA : code = HIEConnectivity
OrgAffA - -> LNA : participatingOrganization
OrgAffA -> EndpointA : endpoint
UN <- - OrgAffA : organization

object "OrganizationAffiliation" as OrgAffB
OrgAffB : code = HIEConnectivity
OrgAffB - -> HC8 : participatingOrganization
OrgAffB -> EndpointB : endpoint
UN <- - OrgAffB : organization

@enduml

PlantUML version 1.2022.7(Mon Aug 22 12:01:30 CDT 2022)
(GPL source distribution)
Java Runtime: OpenJDK Runtime Environment
JVM: OpenJDK 64-Bit Server VM
Default Encoding: Cp1252
Language: en
Country: US
--></g></svg>